<?xml version="1.0" encoding="iso-8859-1"?>
<!-- Generator: Adobe Illustrator 19.0.0, SVG Export Plug-In . SVG Version: 6.00 Build 0)  -->
<svg version="1.1" id="Layer_1" xmlns="http://www.w3.org/2000/svg" xmlns:xlink="http://www.w3.org/1999/xlink" x="0px" y="0px"
	 viewBox="0 0 512 512" style="enable-background:new 0 0 512 512;" xml:space="preserve">
<path style="fill:#23B898;" d="M347.921,45.03c-12.836,5.333-29.717,12.908-46.386,22.022c-5.39-18.14-12.03-35.414-17.387-48.275
	C279.395,7.37,268.342,0,255.99,0c-12.352,0-23.406,7.37-28.16,18.779c-5.359,12.865-11.999,30.145-17.387,48.272
	c-16.668-9.114-33.546-16.688-46.378-22.02c-25.022-10.406-50.179,14.632-39.984,39.628c11.358,27.931,29.459,66.299,51.202,90.477
	c8.011,8.908,22.455,7.375,28.386-3.089c22.835-40.289,81.56-40.726,104.643,0c5.915,10.436,20.353,12.021,28.386,3.089
	c21.743-24.178,39.845-62.546,51.202-90.477l0,0C398.104,59.592,372.874,34.651,347.921,45.03z"/>
<path style="fill:#1DA49C;" d="M347.921,45.03c-12.836,5.333-29.717,12.908-46.386,22.022c-5.39-18.14-12.03-35.414-17.387-48.275
	C279.397,7.377,268.354,0.009,256.009,0v141.57c21.676,0.008,41.604,11.606,52.3,30.478c5.914,10.436,20.353,12.021,28.386,3.089
	c21.743-24.178,39.845-62.546,51.202-90.477l0,0C398.104,59.592,372.874,34.651,347.921,45.03z"/>
<path style="fill:#FF5E5B;" d="M255.99,512c-34.686,0-64.803-18.513-81.356-45.594c-30.79,7.42-65.196-0.71-89.772-25.287
	c-36.216-36.216-37.161-94.555-2.837-131.926c-50.744-55.275-20.28-145.146,53.352-158.342c13.152-2.357,26.482-1.95,39.275,1.134
	c37.337-61.172,125.902-60.147,162.669,0.001c12.794-3.087,26.124-3.493,39.278-1.135c73.544,13.179,104.144,103.014,53.354,158.34
	c34.091,37.084,33.786,95.304-2.837,131.927c-24.119,24.119-58.353,32.856-89.771,25.286C320.793,493.484,290.684,512,255.99,512z"
	/>
<g>
	<path style="fill:#ED3E3C;" d="M429.953,309.191c50.746-55.278,20.27-145.147-53.354-158.34
		c-13.153-2.356-26.483-1.95-39.278,1.135c-17.321-28.335-48.06-45.593-81.312-45.6V512c34.156-0.007,64.512-18.073,81.335-45.594
		c31.352,7.555,65.6-1.115,89.771-25.286C463.714,404.521,464.071,346.304,429.953,309.191z"/>
	<path style="fill:#ED3E3C;" d="M255.992,414.495c-32.775,0-59.441-26.665-59.441-59.441c0-9.716,7.877-17.592,17.592-17.592
		s17.592,7.877,17.592,17.592c0,13.375,10.881,24.256,24.256,24.256c9.716,0,17.592,7.877,17.592,17.592
		S265.707,414.495,255.992,414.495z"/>
</g>
<path style="fill:#D62F2D;" d="M273.584,396.902c0-9.71-7.866-17.582-17.573-17.591v35.183
	C265.717,414.483,273.584,406.612,273.584,396.902z"/>
<g>
</g>
<g>
</g>
<g>
</g>
<g>
</g>
<g>
</g>
<g>
</g>
<g>
</g>
<g>
</g>
<g>
</g>
<g>
</g>
<g>
</g>
<g>
</g>
<g>
</g>
<g>
</g>
<g>
</g>
</svg>
